<?xml version="1.0" encoding="UTF-8" standalone="no"?>
<!DOCTYPE svg PUBLIC "-//W3C//DTD SVG 1.1//EN" "http://www.w3.org/Graphics/SVG/1.1/DTD/svg11.dtd">
<svg xmlns="http://www.w3.org/2000/svg" version="1.1" viewBox="0.00 0.00 538.00 720.00">
<g stroke-width="2.50" fill="none" stroke-linecap="butt">
<path stroke="#e89891" vector-effect="non-scaling-stroke" d="
  M 521.00 245.01
  A 0.27 0.27 0.0 0 0 520.73 244.74
  L 17.59 244.74
  A 0.27 0.27 0.0 0 0 17.32 245.01
  L 17.32 432.73
  A 0.27 0.27 0.0 0 0 17.59 433.00
  L 520.73 433.00
  A 0.27 0.27 0.0 0 0 521.00 432.73
  L 521.00 245.01"
/>
<path stroke="#87a0fa" vector-effect="non-scaling-stroke" d="
  M 487.82 689.71
  A 23.09 23.09 0.0 0 0 464.73 666.62
  A 23.09 23.09 0.0 0 0 441.64 689.71
  A 23.09 23.09 0.0 0 0 464.73 712.80
  A 23.09 23.09 0.0 0 0 487.82 689.71"
/>
<path stroke="#87a0fa" vector-effect="non-scaling-stroke" d="
  M 321.37 698.55
  C 321.36 704.40 325.65 708.11 331.39 705.99
  Q 331.72 705.87 331.67 705.51
  L 331.03 701.51
  A 0.72 0.71 87.4 0 0 330.38 700.91
  Q 328.55 700.76 328.55 698.75
  Q 328.51 683.51 328.49 668.25
  Q 328.49 667.75 327.98 667.75
  L 322.03 667.75
  Q 321.57 667.75 321.57 668.21
  Q 321.40 683.41 321.37 698.55"
/>
<path stroke="#87a0fa" vector-effect="non-scaling-stroke" d="
  M 411.59 703.78
  L 411.84 705.46
  Q 411.92 706.00 412.47 706.00
  L 417.04 706.00
  A 0.48 0.47 90.0 0 0 417.51 705.52
  L 417.49 668.25
  Q 417.49 667.75 417.00 667.75
  L 410.96 667.75
  A 0.52 0.52 0.0 0 0 410.44 668.29
  L 410.80 680.51
  A 0.45 0.45 0.0 0 1 410.07 680.87
  Q 405.93 677.55 401.57 678.80
  C 389.20 682.33 389.52 707.27 404.68 706.46
  C 407.11 706.33 408.87 704.78 410.85 703.46
  Q 411.48 703.03 411.59 703.78"
/>
<path stroke="#87a0fa" vector-effect="non-scaling-stroke" d="
  M 79.25 676.66
  A 0.43 0.43 0.0 0 1 79.68 676.23
  L 93.57 676.30
  A 0.43 0.43 0.0 0 0 94.00 675.87
  L 94.00 670.93
  A 0.43 0.43 0.0 0 0 93.57 670.50
  L 72.69 670.50
  A 0.43 0.43 0.0 0 0 72.26 670.93
  L 72.23 705.57
  A 0.43 0.43 0.0 0 0 72.66 706.00
  L 78.82 706.00
  A 0.43 0.43 0.0 0 0 79.25 705.57
  L 79.25 691.93
  A 0.43 0.43 0.0 0 1 79.68 691.50
  L 91.32 691.50
  A 0.43 0.43 0.0 0 0 91.75 691.07
  L 91.75 686.18
  A 0.43 0.43 0.0 0 0 91.32 685.75
  L 79.68 685.75
  A 0.43 0.43 0.0 0 1 79.25 685.32
  L 79.25 676.66"
/>
<path stroke="#87a0fa" vector-effect="non-scaling-stroke" d="
  M 186.27 670.75
  L 186.21 705.69
  A 0.26 0.26 0.0 0 0 186.47 705.95
  L 197.26 705.97
  A 15.95 15.67 0.1 0 0 213.24 690.32
  L 213.24 686.20
  A 15.95 15.67 0.1 0 0 197.32 670.51
  L 186.53 670.49
  A 0.26 0.26 0.0 0 0 186.27 670.75"
/>
<path stroke="#87a0fa" vector-effect="non-scaling-stroke" d="
  M 104.70 682.97
  L 104.41 679.81
  Q 104.36 679.25 103.80 679.25
  L 99.00 679.25
  Q 98.50 679.25 98.50 679.75
  L 98.50 705.50
  Q 98.50 706.01 99.00 706.00
  L 105.16 705.99
  A 0.41 0.40 89.3 0 0 105.56 705.57
  C 105.43 699.12 102.62 683.45 113.90 684.86
  Q 114.55 684.94 114.68 684.30
  L 115.62 679.65
  A 0.79 0.78 -80.2 0 0 114.97 678.72
  Q 108.73 677.81 105.60 683.17
  Q 104.84 684.47 104.70 682.97"
/>
<path stroke="#87a0fa" vector-effect="non-scaling-stroke" d="
  M 124.75 694.50
  L 140.04 694.50
  Q 140.63 694.50 140.68 693.91
  C 142.75 671.29 114.73 675.77 117.29 694.43
  C 118.85 705.81 129.64 709.82 139.30 703.73
  Q 139.70 703.48 139.48 703.06
  L 137.74 699.81
  Q 137.50 699.37 137.05 699.61
  C 132.02 702.29 125.20 701.84 124.31 695.01
  Q 124.24 694.50 124.75 694.50"
/>
<path stroke="#87a0fa" vector-effect="non-scaling-stroke" d="
  M 152.28 694.50
  L 167.74 694.50
  Q 168.22 694.50 168.29 694.03
  C 169.24 687.86 167.05 680.64 160.38 678.97
  C 149.18 676.16 142.49 688.49 145.73 697.77
  C 148.93 706.96 159.00 708.83 167.04 703.77
  Q 167.46 703.50 167.22 703.06
  L 165.55 699.92
  A 0.61 0.60 62.6 0 0 164.74 699.66
  C 159.44 702.29 153.25 701.73 151.90 694.96
  Q 151.81 694.50 152.28 694.50"
/>
<path stroke="#87a0fa" vector-effect="non-scaling-stroke" d="
  M 231.0446 706.6500
  A 14.08 12.90 89.9 0 0 243.9200 692.5475
  A 14.08 12.90 89.9 0 0 230.9954 678.4900
  A 14.08 12.90 89.9 0 0 218.1200 692.5925
  A 14.08 12.90 89.9 0 0 231.0446 706.6500"
/>
<path stroke="#87a0fa" vector-effect="non-scaling-stroke" d="
  M 347.6963 706.6498
  A 14.08 12.89 90.3 0 0 360.6598 692.6375
  A 14.08 12.89 90.3 0 0 347.8437 678.4902
  A 14.08 12.89 90.3 0 0 334.8802 692.5025
  A 14.08 12.89 90.3 0 0 347.6963 706.6498"
/>
<path stroke="#87a0fa" vector-effect="non-scaling-stroke" d="
  M 306.31 685.67
  C 308.28 690.58 307.27 699.97 307.24 705.44
  Q 307.24 706.00 307.80 706.00
  L 313.47 706.00
  Q 314.04 706.00 314.07 705.43
  C 314.46 698.29 315.48 683.86 311.12 680.38
  C 307.18 677.24 301.23 678.65 298.03 682.17
  A 0.74 0.74 0.0 0 1 296.75 681.67
  L 296.75 679.88
  Q 296.75 679.25 296.13 679.25
  L 291.25 679.25
  Q 290.75 679.25 290.75 679.75
  L 290.75 705.38
  Q 290.75 706.01 291.38 706.00
  L 297.39 705.99
  A 0.39 0.38 0.0 0 0 297.78 705.61
  L 297.74 688.27
  A 1.12 1.11 63.9 0 1 297.97 687.59
  Q 300.89 683.87 305.42 684.91
  A 1.27 1.24 -3.9 0 1 306.31 685.67"
/>
<path stroke="#87a0fa" vector-effect="non-scaling-stroke" d="
  M 381.05 703.59
  L 381.33 705.35
  A 0.78 0.78 0.0 0 0 382.10 706.00
  L 386.49 706.00
  Q 387.10 706.00 387.13 705.39
  Q 387.63 696.73 386.81 688.13
  C 385.69 676.35 373.65 676.95 366.17 682.05
  Q 365.78 682.31 366.01 682.71
  L 368.04 686.18
  Q 368.30 686.63 368.75 686.39
  C 371.87 684.74 380.67 681.82 379.95 688.49
  Q 379.89 689.00 379.38 689.04
  Q 372.23 689.61 368.82 691.81
  C 358.90 698.24 368.19 712.38 380.37 703.32
  Q 380.93 702.90 381.05 703.59"
/>
<path stroke="#87a0fa" vector-effect="non-scaling-stroke" d="
  M 266.38 687.25
  L 270.44 705.43
  A 0.73 0.72 -5.9 0 0 271.15 706.00
  L 278.47 706.00
  Q 278.90 706.00 279.01 705.58
  L 285.37 679.72
  Q 285.48 679.25 285.00 679.25
  L 279.49 679.25
  Q 278.99 679.25 278.89 679.74
  L 274.76 699.47
  A 0.18 0.18 0.0 0 1 274.41 699.48
  L 269.68 679.73
  Q 269.56 679.25 269.07 679.25
  L 263.85 679.25
  Q 263.17 679.25 263.02 679.91
  L 258.43 699.45
  A 0.17 0.17 0.0 0 1 258.09 699.45
  L 254.08 680.07
  Q 253.91 679.25 253.08 679.25
  L 247.55 679.25
  Q 246.89 679.25 247.06 679.89
  L 253.64 705.55
  Q 253.76 706.00 254.23 706.00
  L 261.05 706.00
  Q 261.87 706.00 262.05 705.20
  L 265.98 687.25
  A 0.20 0.20 0.0 0 1 266.38 687.25"
/>
<path stroke="#e89891" vector-effect="non-scaling-stroke" d="
  M 260.33 320.68
  C 259.15 320.95 255.96 321.44 255.65 323.14
  Q 255.58 323.52 255.97 323.52
  L 275.59 323.49
  A 0.87 0.87 0.0 0 0 275.96 321.84
  L 273.68 320.75
  A 3.20 3.18 -79.0 0 1 271.87 318.05
  C 271.50 311.88 270.07 297.91 272.60 292.44
  C 275.41 286.33 285.65 285.34 286.47 294.06
  Q 287.40 303.94 286.91 313.84
  C 286.71 317.66 287.00 320.72 282.96 321.42
  Q 282.41 321.52 282.37 322.08
  L 282.32 322.79
  Q 282.26 323.50 282.98 323.50
  L 301.97 323.50
  A 0.76 0.76 0.0 0 0 302.22 322.03
  L 298.01 320.58
  A 1.21 1.20 -3.6 0 1 297.32 319.98
  Q 296.37 318.14 296.48 315.50
  Q 296.78 307.87 296.04 295.02
  C 295.70 289.22 293.24 284.43 287.26 283.03
  C 280.61 281.47 276.48 284.60 272.01 288.41
  A 0.35 0.35 0.0 0 1 271.44 288.14
  L 271.64 265.55
  Q 271.65 264.45 270.55 264.56
  L 256.20 266.00
  A 0.73 0.73 0.0 0 0 255.88 267.35
  Q 258.00 268.69 260.60 268.92
  A 0.78 0.77 85.0 0 1 261.27 269.49
  Q 262.18 273.08 262.21 278.25
  Q 262.32 296.35 262.24 314.43
  Q 262.23 317.38 261.09 320.05
  A 1.08 1.05 4.6 0 1 260.33 320.68"
/>
<path stroke="#e89891" vector-effect="non-scaling-stroke" d="
  M 203.93 278.60
  L 204.86 278.78
  Q 205.65 278.93 205.74 278.14
  C 206.28 273.69 206.51 270.96 211.75 270.37
  Q 216.59 269.83 221.34 269.72
  A 0.65 0.64 89.1 0 1 222.00 270.37
  Q 222.00 292.17 222.00 314.10
  C 222.00 318.79 220.33 321.77 215.27 321.32
  Q 214.77 321.27 214.62 321.75
  L 214.49 322.15
  A 1.04 1.04 0.0 0 0 215.48 323.50
  L 239.18 323.50
  Q 239.67 323.50 239.85 323.05
  L 240.30 321.93
  Q 240.53 321.36 239.92 321.30
  C 236.91 320.99 233.85 321.12 233.25 317.25
  C 232.07 309.65 232.72 300.40 232.71 294.31
  Q 232.68 282.40 232.79 270.44
  Q 232.80 269.96 233.27 269.92
  C 239.17 269.36 249.42 269.48 248.25 277.79
  A 0.60 0.60 0.0 0 0 248.84 278.48
  L 251.04 278.51
  Q 251.66 278.52 251.64 277.90
  L 251.27 266.85
  Q 251.25 266.20 250.60 266.20
  L 203.51 266.23
  A 0.51 0.51 0.0 0 0 203.00 266.74
  L 203.00 277.48
  A 1.15 1.14 5.5 0 0 203.93 278.60"
/>
<path stroke="#e89891" vector-effect="non-scaling-stroke" d="
  M 312.94 320.06
  C 322.45 327.38 334.19 325.09 340.97 315.50
  A 1.01 1.01 0.0 0 0 339.46 314.18
  C 334.37 318.94 328.67 322.33 322.08 317.92
  C 317.44 314.83 316.53 307.95 316.08 302.62
  Q 315.95 301.06 317.52 301.05
  L 340.50 301.00
  A 0.60 0.60 0.0 0 0 341.10 300.43
  C 342.31 278.92 314.84 276.62 308.09 294.39
  C 305.04 302.43 305.54 314.37 312.94 320.06"
/>
<path stroke="#e89891" vector-effect="non-scaling-stroke" d="
  M 415.27 339.62
  A 5.83 5.83 0.0 0 0 409.44 333.79
  A 5.83 5.83 0.0 0 0 403.61 339.62
  A 5.83 5.83 0.0 0 0 409.44 345.45
  A 5.83 5.83 0.0 0 0 415.27 339.62"
/>
<path stroke="#e89891" vector-effect="non-scaling-stroke" d="
  M 44.09 338.35
  C 47.62 339.06 52.24 340.22 52.25 344.75
  Q 52.26 367.90 52.24 391.05
  C 52.23 396.38 49.15 397.20 44.81 398.08
  A 0.91 0.89 39.3 0 0 45.00 399.86
  L 86.42 400.53
  A 0.88 0.88 0.0 0 0 87.30 399.78
  L 89.11 386.62
  Q 89.22 385.82 88.46 385.56
  L 86.67 384.95
  Q 86.06 384.74 85.86 385.35
  Q 85.40 386.73 84.46 390.25
  C 82.95 395.84 73.50 396.29 68.73 396.10
  Q 64.19 395.92 64.11 391.45
  Q 63.92 380.63 64.02 370.17
  A 0.88 0.88 0.0 0 1 64.87 369.30
  Q 70.52 369.05 75.84 369.65
  C 79.84 370.09 79.76 373.23 80.54 376.16
  A 1.51 1.50 37.6 0 0 83.50 375.78
  L 83.50 357.98
  A 1.33 1.33 0.0 0 0 80.86 357.75
  C 80.52 359.73 80.26 362.32 78.59 363.66
  C 75.66 365.99 68.95 365.32 65.43 365.21
  A 1.47 1.47 0.0 0 1 64.00 363.74
  L 64.00 341.48
  Q 64.00 340.82 64.65 340.80
  C 68.82 340.63 75.94 340.52 79.61 342.61
  Q 80.07 342.87 80.22 343.37
  L 81.83 349.05
  A 1.60 1.60 0.0 0 0 84.97 348.66
  L 85.32 337.03
  Q 85.34 336.48 84.78 336.48
  L 44.23 336.85
  A 0.76 0.76 0.0 0 0 44.09 338.35"
/>
<path stroke="#e89891" vector-effect="non-scaling-stroke" d="
  M 475.23 362.30
  Q 475.30 373.92 475.25 385.54
  C 475.19 400.81 484.40 403.77 497.25 398.62
  Q 497.96 398.33 497.63 397.64
  L 496.97 396.29
  Q 496.71 395.74 496.13 395.92
  C 487.02 398.66 485.53 392.71 485.51 385.36
  Q 485.47 373.69 485.51 361.99
  Q 485.51 361.50 486.01 361.50
  L 494.78 361.50
  A 0.72 0.72 0.0 0 0 495.48 360.96
  L 496.40 357.28
  Q 496.51 356.84 496.05 356.82
  L 486.11 356.46
  Q 485.53 356.44 485.52 355.86
  L 485.35 345.99
  A 2.16 2.16 0.0 0 0 481.11 345.45
  C 479.56 350.98 477.25 356.61 470.23 357.05
  Q 469.61 357.09 469.57 357.71
  L 469.41 360.88
  Q 469.38 361.38 469.89 361.42
  L 474.72 361.76
  Q 475.23 361.79 475.23 362.30"
/>
<path stroke="#e89891" vector-effect="non-scaling-stroke" d="
  M 148.00 392.49
  C 153.16 399.92 162.91 402.77 171.58 400.61
  C 192.63 395.35 193.41 361.63 172.44 355.74
  C 165.42 353.77 157.01 354.79 151.31 359.40
  C 142.60 366.44 141.89 383.71 148.00 392.49"
/>
<path stroke="#e89891" vector-effect="non-scaling-stroke" d="
  M 197.99 357.88
  L 203.58 359.98
  Q 204.03 360.15 204.18 360.62
  Q 204.97 363.14 204.99 365.25
  Q 205.08 374.14 204.76 393.43
  C 204.69 397.61 201.86 397.61 199.02 398.38
  A 0.83 0.82 37.4 0 0 199.24 400.00
  L 220.47 400.00
  A 0.80 0.79 58.1 0 0 220.82 398.49
  C 217.78 396.99 215.59 396.80 215.53 392.68
  Q 215.37 381.49 215.66 370.32
  C 215.91 360.73 229.52 355.32 231.90 367.42
  C 233.03 373.16 232.56 380.64 232.49 390.55
  C 232.46 394.60 231.48 397.18 227.68 398.56
  A 0.88 0.88 0.0 0 0 227.99 400.27
  L 249.77 400.02
  Q 250.25 400.01 250.25 399.54
  Q 250.25 399.38 250.26 399.20
  A 0.54 0.54 0.0 0 0 249.78 398.62
  Q 242.89 397.80 242.83 390.25
  C 242.77 382.67 244.24 369.27 241.32 362.53
  C 236.53 351.49 223.41 353.71 216.18 360.87
  A 0.84 0.84 0.0 0 1 214.75 360.28
  L 214.75 355.36
  Q 214.75 354.73 214.12 354.81
  L 198.07 356.79
  A 0.36 0.36 0.0 0 0 197.75 357.21
  L 197.85 357.72
  A 0.23 0.22 -88.1 0 0 197.99 357.88"
/>
<path stroke="#e89891" vector-effect="non-scaling-stroke" d="
  M 301.0722 375.3192
  A 19.76 19.76 0.0 0 0 281.8009 355.0823
  L 278.0820 354.9914
  A 19.76 19.76 0.0 0 0 257.8451 374.2627
  L 257.6878 380.7008
  A 19.76 19.76 0.0 0 0 276.9591 400.9377
  L 280.6780 401.0286
  A 19.76 19.76 0.0 0 0 300.9149 381.7573
  L 301.0722 375.3192"
/>
<path stroke="#e89891" vector-effect="non-scaling-stroke" d="
  M 317.23 360.14
  Q 318.19 362.36 318.23 363.51
  Q 318.86 380.83 318.13 393.51
  Q 317.87 398.20 313.02 398.10
  Q 312.30 398.09 311.97 398.36
  Q 311.46 398.78 311.48 399.47
  Q 311.50 399.99 312.02 399.99
  Q 322.52 400.03 333.02 399.98
  Q 333.58 399.97 333.79 399.76
  Q 334.15 399.42 333.97 398.70
  A 0.82 0.82 0.0 0 0 333.31 398.09
  C 330.25 397.57 329.21 395.69 328.96 392.63
  C 328.43 386.17 326.87 370.62 330.35 365.24
  C 332.70 361.61 338.46 358.71 342.33 362.04
  C 346.87 365.95 345.68 385.90 345.33 393.07
  Q 345.12 397.44 340.82 398.22
  A 0.93 0.93 0.0 0 0 340.99 400.07
  L 361.12 399.99
  A 0.55 0.55 0.0 0 0 361.36 398.95
  L 357.41 396.94
  A 1.05 1.01 -88.9 0 1 356.91 396.40
  C 354.53 390.37 355.70 379.20 355.83 370.57
  C 355.98 359.93 370.58 356.40 372.01 366.76
  Q 373.59 378.26 372.41 393.51
  C 372.21 396.01 370.86 397.21 368.65 397.91
  Q 368.38 397.99 368.18 398.20
  L 367.69 398.68
  A 0.77 0.77 0.0 0 0 368.24 400.00
  L 389.32 400.00
  Q 389.93 400.00 390.12 399.41
  L 390.26 398.94
  Q 390.43 398.42 389.89 398.33
  C 386.46 397.79 382.91 397.50 382.99 392.94
  C 383.14 383.81 384.81 364.75 378.70 358.58
  C 370.21 349.99 361.31 356.67 354.78 363.05
  Q 354.34 363.48 354.14 362.90
  C 349.73 350.38 335.56 353.92 328.85 362.23
  A 0.47 0.47 0.0 0 1 328.01 361.94
  L 328.00 355.90
  A 0.97 0.96 86.3 0 0 326.92 354.94
  L 312.33 356.67
  Q 311.82 356.73 311.56 357.17
  L 311.36 357.50
  A 0.76 0.76 0.0 0 0 311.86 358.63
  L 316.61 359.63
  A 0.90 0.89 -5.3 0 1 317.23 360.14"
/>
<path stroke="#e89891" vector-effect="non-scaling-stroke" d="
  M 398.42 358.60
  Q 400.41 359.19 402.58 359.59
  A 1.12 1.10 80.0 0 1 403.36 360.15
  Q 404.44 362.10 404.46 364.44
  Q 404.62 378.75 404.42 393.06
  C 404.35 397.75 401.29 397.49 397.98 398.79
  A 0.65 0.65 0.0 0 0 398.21 400.05
  L 421.52 400.02
  A 0.53 0.52 87.0 0 0 422.04 399.44
  Q 421.89 397.94 419.98 397.97
  C 417.08 398.01 415.42 396.46 415.27 393.46
  Q 414.28 374.41 414.53 355.21
  A 0.42 0.41 -3.7 0 0 414.06 354.80
  L 398.21 356.73
  A 0.80 0.79 87.1 0 0 397.51 357.51
  Q 397.49 358.33 398.42 358.60"
/>
<path stroke="#e89891" vector-effect="non-scaling-stroke" d="
  M 440.41 363.30
  C 441.95 357.88 449.94 355.42 452.60 360.98
  C 453.54 362.94 454.55 367.05 457.75 365.44
  C 459.62 364.50 459.04 360.35 458.98 358.69
  A 2.36 2.36 0.0 0 0 457.47 356.58
  C 448.98 353.33 436.60 353.59 433.50 364.25
  C 429.39 378.37 445.05 380.87 450.76 388.85
  C 453.52 392.71 450.62 396.95 446.28 397.58
  C 440.69 398.40 439.00 394.78 437.15 390.19
  A 1.03 1.02 -10.1 0 0 436.23 389.55
  L 433.07 389.48
  Q 432.48 389.46 432.48 390.06
  C 432.48 392.73 431.43 397.68 434.47 399.01
  Q 443.80 403.08 452.44 399.20
  C 458.20 396.62 461.44 389.12 459.08 383.14
  C 455.63 374.37 443.45 372.82 440.43 364.24
  Q 440.27 363.77 440.41 363.30"
/>
<path stroke="#e89891" vector-effect="non-scaling-stroke" d="
  M 100.64 384.15
  C 103.40 400.52 121.08 406.89 133.04 395.30
  C 134.36 394.02 134.42 392.37 132.72 391.47
  A 0.80 0.79 34.9 0 0 131.76 391.63
  C 124.16 399.75 114.79 395.93 112.23 386.01
  C 110.30 378.56 108.57 357.67 120.99 358.01
  C 127.88 358.20 127.14 362.38 129.19 367.14
  Q 129.36 367.54 129.79 367.67
  C 134.29 369.07 133.24 360.49 133.28 358.06
  A 1.54 1.53 7.8 0 0 132.12 356.54
  C 125.81 354.95 118.75 354.08 112.81 356.16
  C 101.44 360.15 98.82 373.39 100.64 384.15"
/>
<path stroke="#e89891" vector-effect="non-scaling-stroke" d="
  M 316.57 298.05
  L 332.17 296.98
  A 0.28 0.28 0.0 0 0 332.43 296.69
  L 332.38 295.90
  A 10.99 8.05 86.1 0 0 323.60 285.48
  L 323.50 285.49
  A 10.99 8.05 86.1 0 0 316.22 297.00
  L 316.27 297.79
  A 0.28 0.28 0.0 0 0 316.57 298.05"
/>
<path stroke="#e89891" vector-effect="non-scaling-stroke" d="
  M 165.65 397.87
  C 181.07 399.74 180.22 361.89 166.74 358.69
  C 151.99 355.19 154.65 379.94 156.61 387.46
  C 157.89 392.36 160.20 397.21 165.65 397.87"
/>
<path stroke="#e89891" vector-effect="non-scaling-stroke" d="
  M 272.46 392.83
  C 274.08 396.39 277.73 398.49 281.55 397.88
  C 285.74 397.21 288.16 393.49 289.26 389.57
  Q 293.02 376.28 287.10 364.81
  C 283.27 357.38 272.28 355.19 269.96 364.98
  Q 266.48 379.69 272.46 392.83"
/>
<path stroke="#87a0fa" vector-effect="non-scaling-stroke" d="
  M 450.38 690.65
  L 463.41 703.51
  A 2.04 2.04 0.0 0 0 466.22 703.56
  Q 472.14 698.14 478.00 691.97
  C 481.33 688.46 476.90 684.44 473.59 688.11
  Q 471.08 690.90 468.32 693.50
  Q 467.75 694.04 467.75 693.26
  L 467.75 676.99
  A 2.20 2.20 0.0 0 0 465.98 674.83
  Q 462.12 674.07 462.00 677.76
  Q 461.75 685.62 461.71 693.29
  A 0.25 0.25 0.0 0 1 461.28 693.47
  L 454.62 686.72
  A 1.14 1.12 61.1 0 0 453.58 686.41
  Q 451.19 686.89 450.11 689.10
  Q 449.69 689.97 450.38 690.65"
/>
<path stroke="#87a0fa" vector-effect="non-scaling-stroke" d="
  M 410.29 698.26
  L 410.49 687.06
  A 2.40 2.40 0.0 0 0 408.13 684.62
  L 405.78 684.58
  A 6.71 5.55 -89.0 0 0 400.11 691.19
  L 400.07 693.77
  A 6.71 5.55 -89.0 0 0 405.50 700.58
  L 407.85 700.62
  A 2.40 2.40 0.0 0 0 410.29 698.26"
/>
<path stroke="#87a0fa" vector-effect="non-scaling-stroke" d="
  M 193.21 676.50
  L 193.29 699.92
  A 0.28 0.28 0.0 0 0 193.57 700.20
  L 196.25 700.19
  A 9.97 9.80 89.8 0 0 206.02 690.19
  L 206.00 686.15
  A 9.97 9.80 89.8 0 0 196.17 676.21
  L 193.49 676.22
  A 0.28 0.28 0.0 0 0 193.21 676.50"
/>
<path stroke="#87a0fa" vector-effect="non-scaling-stroke" d="
  M 124.43 689.92
  L 134.56 689.66
  A 0.28 0.28 0.0 0 0 134.84 689.37
  L 134.83 689.20
  A 5.33 5.24 88.5 0 0 129.45 684.01
  L 129.23 684.01
  A 5.33 5.24 88.5 0 0 124.14 689.48
  L 124.14 689.65
  A 0.28 0.28 0.0 0 0 124.43 689.92"
/>
<path stroke="#87a0fa" vector-effect="non-scaling-stroke" d="
  M 152.30 689.81
  L 162.27 689.69
  A 0.28 0.28 0.0 0 0 162.55 689.41
  L 162.55 689.22
  A 5.24 5.23 -0.7 0 0 157.25 684.05
  L 157.19 684.05
  A 5.24 5.23 -0.7 0 0 152.01 689.34
  L 152.01 689.53
  A 0.28 0.28 0.0 0 0 152.30 689.81"
/>
<path stroke="#87a0fa" vector-effect="non-scaling-stroke" d="
  M 231.0590 700.8899
  A 8.32 5.68 89.8 0 0 236.7100 692.5502
  A 8.32 5.68 89.8 0 0 231.0010 684.2501
  A 8.32 5.68 89.8 0 0 225.3500 692.5898
  A 8.32 5.68 89.8 0 0 231.0590 700.8899"
/>
<path stroke="#87a0fa" vector-effect="non-scaling-stroke" d="
  M 347.7500 700.8800
  A 8.31 5.67 90.0 0 0 353.4200 692.5700
  A 8.31 5.67 90.0 0 0 347.7500 684.2600
  A 8.31 5.67 90.0 0 0 342.0800 692.5700
  A 8.31 5.67 90.0 0 0 347.7500 700.8800"
/>
<path stroke="#87a0fa" vector-effect="non-scaling-stroke" d="
  M 379.61 693.30
  C 366.47 694.22 372.41 705.45 379.10 699.40
  C 380.74 697.92 380.41 695.81 380.21 693.80
  Q 380.15 693.26 379.61 693.30"
/>
</g>
<path fill="#ffffff" d="
  M 0.00 0.00
  L 538.00 0.00
  L 538.00 720.00
  L 0.00 720.00
  L 0.00 0.00
  Z
  M 521.00 245.01
  A 0.27 0.27 0.0 0 0 520.73 244.74
  L 17.59 244.74
  A 0.27 0.27 0.0 0 0 17.32 245.01
  L 17.32 432.73
  A 0.27 0.27 0.0 0 0 17.59 433.00
  L 520.73 433.00
  A 0.27 0.27 0.0 0 0 521.00 432.73
  L 521.00 245.01
  Z
  M 487.82 689.71
  A 23.09 23.09 0.0 0 0 464.73 666.62
  A 23.09 23.09 0.0 0 0 441.64 689.71
  A 23.09 23.09 0.0 0 0 464.73 712.80
  A 23.09 23.09 0.0 0 0 487.82 689.71
  Z
  M 321.37 698.55
  C 321.36 704.40 325.65 708.11 331.39 705.99
  Q 331.72 705.87 331.67 705.51
  L 331.03 701.51
  A 0.72 0.71 87.4 0 0 330.38 700.91
  Q 328.55 700.76 328.55 698.75
  Q 328.51 683.51 328.49 668.25
  Q 328.49 667.75 327.98 667.75
  L 322.03 667.75
  Q 321.57 667.75 321.57 668.21
  Q 321.40 683.41 321.37 698.55
  Z
  M 411.59 703.78
  L 411.84 705.46
  Q 411.92 706.00 412.47 706.00
  L 417.04 706.00
  A 0.48 0.47 90.0 0 0 417.51 705.52
  L 417.49 668.25
  Q 417.49 667.75 417.00 667.75
  L 410.96 667.75
  A 0.52 0.52 0.0 0 0 410.44 668.29
  L 410.80 680.51
  A 0.45 0.45 0.0 0 1 410.07 680.87
  Q 405.93 677.55 401.57 678.80
  C 389.20 682.33 389.52 707.27 404.68 706.46
  C 407.11 706.33 408.87 704.78 410.85 703.46
  Q 411.48 703.03 411.59 703.78
  Z
  M 79.25 676.66
  A 0.43 0.43 0.0 0 1 79.68 676.23
  L 93.57 676.30
  A 0.43 0.43 0.0 0 0 94.00 675.87
  L 94.00 670.93
  A 0.43 0.43 0.0 0 0 93.57 670.50
  L 72.69 670.50
  A 0.43 0.43 0.0 0 0 72.26 670.93
  L 72.23 705.57
  A 0.43 0.43 0.0 0 0 72.66 706.00
  L 78.82 706.00
  A 0.43 0.43 0.0 0 0 79.25 705.57
  L 79.25 691.93
  A 0.43 0.43 0.0 0 1 79.68 691.50
  L 91.32 691.50
  A 0.43 0.43 0.0 0 0 91.75 691.07
  L 91.75 686.18
  A 0.43 0.43 0.0 0 0 91.32 685.75
  L 79.68 685.75
  A 0.43 0.43 0.0 0 1 79.25 685.32
  L 79.25 676.66
  Z
  M 186.27 670.75
  L 186.21 705.69
  A 0.26 0.26 0.0 0 0 186.47 705.95
  L 197.26 705.97
  A 15.95 15.67 0.1 0 0 213.24 690.32
  L 213.24 686.20
  A 15.95 15.67 0.1 0 0 197.32 670.51
  L 186.53 670.49
  A 0.26 0.26 0.0 0 0 186.27 670.75
  Z
  M 104.70 682.97
  L 104.41 679.81
  Q 104.36 679.25 103.80 679.25
  L 99.00 679.25
  Q 98.50 679.25 98.50 679.75
  L 98.50 705.50
  Q 98.50 706.01 99.00 706.00
  L 105.16 705.99
  A 0.41 0.40 89.3 0 0 105.56 705.57
  C 105.43 699.12 102.62 683.45 113.90 684.86
  Q 114.55 684.94 114.68 684.30
  L 115.62 679.65
  A 0.79 0.78 -80.2 0 0 114.97 678.72
  Q 108.73 677.81 105.60 683.17
  Q 104.84 684.47 104.70 682.97
  Z
  M 124.75 694.50
  L 140.04 694.50
  Q 140.63 694.50 140.68 693.91
  C 142.75 671.29 114.73 675.77 117.29 694.43
  C 118.85 705.81 129.64 709.82 139.30 703.73
  Q 139.70 703.48 139.48 703.06
  L 137.74 699.81
  Q 137.50 699.37 137.05 699.61
  C 132.02 702.29 125.20 701.84 124.31 695.01
  Q 124.24 694.50 124.75 694.50
  Z
  M 152.28 694.50
  L 167.74 694.50
  Q 168.22 694.50 168.29 694.03
  C 169.24 687.86 167.05 680.64 160.38 678.97
  C 149.18 676.16 142.49 688.49 145.73 697.77
  C 148.93 706.96 159.00 708.83 167.04 703.77
  Q 167.46 703.50 167.22 703.06
  L 165.55 699.92
  A 0.61 0.60 62.6 0 0 164.74 699.66
  C 159.44 702.29 153.25 701.73 151.90 694.96
  Q 151.81 694.50 152.28 694.50
  Z
  M 231.0446 706.6500
  A 14.08 12.90 89.9 0 0 243.9200 692.5475
  A 14.08 12.90 89.9 0 0 230.9954 678.4900
  A 14.08 12.90 89.9 0 0 218.1200 692.5925
  A 14.08 12.90 89.9 0 0 231.0446 706.6500
  Z
  M 347.6963 706.6498
  A 14.08 12.89 90.3 0 0 360.6598 692.6375
  A 14.08 12.89 90.3 0 0 347.8437 678.4902
  A 14.08 12.89 90.3 0 0 334.8802 692.5025
  A 14.08 12.89 90.3 0 0 347.6963 706.6498
  Z
  M 306.31 685.67
  C 308.28 690.58 307.27 699.97 307.24 705.44
  Q 307.24 706.00 307.80 706.00
  L 313.47 706.00
  Q 314.04 706.00 314.07 705.43
  C 314.46 698.29 315.48 683.86 311.12 680.38
  C 307.18 677.24 301.23 678.65 298.03 682.17
  A 0.74 0.74 0.0 0 1 296.75 681.67
  L 296.75 679.88
  Q 296.75 679.25 296.13 679.25
  L 291.25 679.25
  Q 290.75 679.25 290.75 679.75
  L 290.75 705.38
  Q 290.75 706.01 291.38 706.00
  L 297.39 705.99
  A 0.39 0.38 0.0 0 0 297.78 705.61
  L 297.74 688.27
  A 1.12 1.11 63.9 0 1 297.97 687.59
  Q 300.89 683.87 305.42 684.91
  A 1.27 1.24 -3.9 0 1 306.31 685.67
  Z
  M 381.05 703.59
  L 381.33 705.35
  A 0.78 0.78 0.0 0 0 382.10 706.00
  L 386.49 706.00
  Q 387.10 706.00 387.13 705.39
  Q 387.63 696.73 386.81 688.13
  C 385.69 676.35 373.65 676.95 366.17 682.05
  Q 365.78 682.31 366.01 682.71
  L 368.04 686.18
  Q 368.30 686.63 368.75 686.39
  C 371.87 684.74 380.67 681.82 379.95 688.49
  Q 379.89 689.00 379.38 689.04
  Q 372.23 689.61 368.82 691.81
  C 358.90 698.24 368.19 712.38 380.37 703.32
  Q 380.93 702.90 381.05 703.59
  Z
  M 266.38 687.25
  L 270.44 705.43
  A 0.73 0.72 -5.9 0 0 271.15 706.00
  L 278.47 706.00
  Q 278.90 706.00 279.01 705.58
  L 285.37 679.72
  Q 285.48 679.25 285.00 679.25
  L 279.49 679.25
  Q 278.99 679.25 278.89 679.74
  L 274.76 699.47
  A 0.18 0.18 0.0 0 1 274.41 699.48
  L 269.68 679.73
  Q 269.56 679.25 269.07 679.25
  L 263.85 679.25
  Q 263.17 679.25 263.02 679.91
  L 258.43 699.45
  A 0.17 0.17 0.0 0 1 258.09 699.45
  L 254.08 680.07
  Q 253.91 679.25 253.08 679.25
  L 247.55 679.25
  Q 246.89 679.25 247.06 679.89
  L 253.64 705.55
  Q 253.76 706.00 254.23 706.00
  L 261.05 706.00
  Q 261.87 706.00 262.05 705.20
  L 265.98 687.25
  A 0.20 0.20 0.0 0 1 266.38 687.25
  Z"
/>
<path fill="#d03123" d="
  M 521.00 432.73
  A 0.27 0.27 0.0 0 1 520.73 433.00
  L 17.59 433.00
  A 0.27 0.27 0.0 0 1 17.32 432.73
  L 17.32 245.01
  A 0.27 0.27 0.0 0 1 17.59 244.74
  L 520.73 244.74
  A 0.27 0.27 0.0 0 1 521.00 245.01
  L 521.00 432.73
  Z
  M 260.33 320.68
  C 259.15 320.95 255.96 321.44 255.65 323.14
  Q 255.58 323.52 255.97 323.52
  L 275.59 323.49
  A 0.87 0.87 0.0 0 0 275.96 321.84
  L 273.68 320.75
  A 3.20 3.18 -79.0 0 1 271.87 318.05
  C 271.50 311.88 270.07 297.91 272.60 292.44
  C 275.41 286.33 285.65 285.34 286.47 294.06
  Q 287.40 303.94 286.91 313.84
  C 286.71 317.66 287.00 320.72 282.96 321.42
  Q 282.41 321.52 282.37 322.08
  L 282.32 322.79
  Q 282.26 323.50 282.98 323.50
  L 301.97 323.50
  A 0.76 0.76 0.0 0 0 302.22 322.03
  L 298.01 320.58
  A 1.21 1.20 -3.6 0 1 297.32 319.98
  Q 296.37 318.14 296.48 315.50
  Q 296.78 307.87 296.04 295.02
  C 295.70 289.22 293.24 284.43 287.26 283.03
  C 280.61 281.47 276.48 284.60 272.01 288.41
  A 0.35 0.35 0.0 0 1 271.44 288.14
  L 271.64 265.55
  Q 271.65 264.45 270.55 264.56
  L 256.20 266.00
  A 0.73 0.73 0.0 0 0 255.88 267.35
  Q 258.00 268.69 260.60 268.92
  A 0.78 0.77 85.0 0 1 261.27 269.49
  Q 262.18 273.08 262.21 278.25
  Q 262.32 296.35 262.24 314.43
  Q 262.23 317.38 261.09 320.05
  A 1.08 1.05 4.6 0 1 260.33 320.68
  Z
  M 203.93 278.60
  L 204.86 278.78
  Q 205.65 278.93 205.74 278.14
  C 206.28 273.69 206.51 270.96 211.75 270.37
  Q 216.59 269.83 221.34 269.72
  A 0.65 0.64 89.1 0 1 222.00 270.37
  Q 222.00 292.17 222.00 314.10
  C 222.00 318.79 220.33 321.77 215.27 321.32
  Q 214.77 321.27 214.62 321.75
  L 214.49 322.15
  A 1.04 1.04 0.0 0 0 215.48 323.50
  L 239.18 323.50
  Q 239.67 323.50 239.85 323.05
  L 240.30 321.93
  Q 240.53 321.36 239.92 321.30
  C 236.91 320.99 233.85 321.12 233.25 317.25
  C 232.07 309.65 232.72 300.40 232.71 294.31
  Q 232.68 282.40 232.79 270.44
  Q 232.80 269.96 233.27 269.92
  C 239.17 269.36 249.42 269.48 248.25 277.79
  A 0.60 0.60 0.0 0 0 248.84 278.48
  L 251.04 278.51
  Q 251.66 278.52 251.64 277.90
  L 251.27 266.85
  Q 251.25 266.20 250.60 266.20
  L 203.51 266.23
  A 0.51 0.51 0.0 0 0 203.00 266.74
  L 203.00 277.48
  A 1.15 1.14 5.5 0 0 203.93 278.60
  Z
  M 312.94 320.06
  C 322.45 327.38 334.19 325.09 340.97 315.50
  A 1.01 1.01 0.0 0 0 339.46 314.18
  C 334.37 318.94 328.67 322.33 322.08 317.92
  C 317.44 314.83 316.53 307.95 316.08 302.62
  Q 315.95 301.06 317.52 301.05
  L 340.50 301.00
  A 0.60 0.60 0.0 0 0 341.10 300.43
  C 342.31 278.92 314.84 276.62 308.09 294.39
  C 305.04 302.43 305.54 314.37 312.94 320.06
  Z
  M 415.27 339.62
  A 5.83 5.83 0.0 0 0 409.44 333.79
  A 5.83 5.83 0.0 0 0 403.61 339.62
  A 5.83 5.83 0.0 0 0 409.44 345.45
  A 5.83 5.83 0.0 0 0 415.27 339.62
  Z
  M 44.09 338.35
  C 47.62 339.06 52.24 340.22 52.25 344.75
  Q 52.26 367.90 52.24 391.05
  C 52.23 396.38 49.15 397.20 44.81 398.08
  A 0.91 0.89 39.3 0 0 45.00 399.86
  L 86.42 400.53
  A 0.88 0.88 0.0 0 0 87.30 399.78
  L 89.11 386.62
  Q 89.22 385.82 88.46 385.56
  L 86.67 384.95
  Q 86.06 384.74 85.86 385.35
  Q 85.40 386.73 84.46 390.25
  C 82.95 395.84 73.50 396.29 68.73 396.10
  Q 64.19 395.92 64.11 391.45
  Q 63.92 380.63 64.02 370.17
  A 0.88 0.88 0.0 0 1 64.87 369.30
  Q 70.52 369.05 75.84 369.65
  C 79.84 370.09 79.76 373.23 80.54 376.16
  A 1.51 1.50 37.6 0 0 83.50 375.78
  L 83.50 357.98
  A 1.33 1.33 0.0 0 0 80.86 357.75
  C 80.52 359.73 80.26 362.32 78.59 363.66
  C 75.66 365.99 68.95 365.32 65.43 365.21
  A 1.47 1.47 0.0 0 1 64.00 363.74
  L 64.00 341.48
  Q 64.00 340.82 64.65 340.80
  C 68.82 340.63 75.94 340.52 79.61 342.61
  Q 80.07 342.87 80.22 343.37
  L 81.83 349.05
  A 1.60 1.60 0.0 0 0 84.97 348.66
  L 85.32 337.03
  Q 85.34 336.48 84.78 336.48
  L 44.23 336.85
  A 0.76 0.76 0.0 0 0 44.09 338.35
  Z
  M 475.23 362.30
  Q 475.30 373.92 475.25 385.54
  C 475.19 400.81 484.40 403.77 497.25 398.62
  Q 497.96 398.33 497.63 397.64
  L 496.97 396.29
  Q 496.71 395.74 496.13 395.92
  C 487.02 398.66 485.53 392.71 485.51 385.36
  Q 485.47 373.69 485.51 361.99
  Q 485.51 361.50 486.01 361.50
  L 494.78 361.50
  A 0.72 0.72 0.0 0 0 495.48 360.96
  L 496.40 357.28
  Q 496.51 356.84 496.05 356.82
  L 486.11 356.46
  Q 485.53 356.44 485.52 355.86
  L 485.35 345.99
  A 2.16 2.16 0.0 0 0 481.11 345.45
  C 479.56 350.98 477.25 356.61 470.23 357.05
  Q 469.61 357.09 469.57 357.71
  L 469.41 360.88
  Q 469.38 361.38 469.89 361.42
  L 474.72 361.76
  Q 475.23 361.79 475.23 362.30
  Z
  M 148.00 392.49
  C 153.16 399.92 162.91 402.77 171.58 400.61
  C 192.63 395.35 193.41 361.63 172.44 355.74
  C 165.42 353.77 157.01 354.79 151.31 359.40
  C 142.60 366.44 141.89 383.71 148.00 392.49
  Z
  M 197.99 357.88
  L 203.58 359.98
  Q 204.03 360.15 204.18 360.62
  Q 204.97 363.14 204.99 365.25
  Q 205.08 374.14 204.76 393.43
  C 204.69 397.61 201.86 397.61 199.02 398.38
  A 0.83 0.82 37.4 0 0 199.24 400.00
  L 220.47 400.00
  A 0.80 0.79 58.1 0 0 220.82 398.49
  C 217.78 396.99 215.59 396.80 215.53 392.68
  Q 215.37 381.49 215.66 370.32
  C 215.91 360.73 229.52 355.32 231.90 367.42
  C 233.03 373.16 232.56 380.64 232.49 390.55
  C 232.46 394.60 231.48 397.18 227.68 398.56
  A 0.88 0.88 0.0 0 0 227.99 400.27
  L 249.77 400.02
  Q 250.25 400.01 250.25 399.54
  Q 250.25 399.38 250.26 399.20
  A 0.54 0.54 0.0 0 0 249.78 398.62
  Q 242.89 397.80 242.83 390.25
  C 242.77 382.67 244.24 369.27 241.32 362.53
  C 236.53 351.49 223.41 353.71 216.18 360.87
  A 0.84 0.84 0.0 0 1 214.75 360.28
  L 214.75 355.36
  Q 214.75 354.73 214.12 354.81
  L 198.07 356.79
  A 0.36 0.36 0.0 0 0 197.75 357.21
  L 197.85 357.72
  A 0.23 0.22 -88.1 0 0 197.99 357.88
  Z
  M 301.0722 375.3192
  A 19.76 19.76 0.0 0 0 281.8009 355.0823
  L 278.0820 354.9914
  A 19.76 19.76 0.0 0 0 257.8451 374.2627
  L 257.6878 380.7008
  A 19.76 19.76 0.0 0 0 276.9591 400.9377
  L 280.6780 401.0286
  A 19.76 19.76 0.0 0 0 300.9149 381.7573
  L 301.0722 375.3192
  Z
  M 317.23 360.14
  Q 318.19 362.36 318.23 363.51
  Q 318.86 380.83 318.13 393.51
  Q 317.87 398.20 313.02 398.10
  Q 312.30 398.09 311.97 398.36
  Q 311.46 398.78 311.48 399.47
  Q 311.50 399.99 312.02 399.99
  Q 322.52 400.03 333.02 399.98
  Q 333.58 399.97 333.79 399.76
  Q 334.15 399.42 333.97 398.70
  A 0.82 0.82 0.0 0 0 333.31 398.09
  C 330.25 397.57 329.21 395.69 328.96 392.63
  C 328.43 386.17 326.87 370.62 330.35 365.24
  C 332.70 361.61 338.46 358.71 342.33 362.04
  C 346.87 365.95 345.68 385.90 345.33 393.07
  Q 345.12 397.44 340.82 398.22
  A 0.93 0.93 0.0 0 0 340.99 400.07
  L 361.12 399.99
  A 0.55 0.55 0.0 0 0 361.36 398.95
  L 357.41 396.94
  A 1.05 1.01 -88.9 0 1 356.91 396.40
  C 354.53 390.37 355.70 379.20 355.83 370.57
  C 355.98 359.93 370.58 356.40 372.01 366.76
  Q 373.59 378.26 372.41 393.51
  C 372.21 396.01 370.86 397.21 368.65 397.91
  Q 368.38 397.99 368.18 398.20
  L 367.69 398.68
  A 0.77 0.77 0.0 0 0 368.24 400.00
  L 389.32 400.00
  Q 389.93 400.00 390.12 399.41
  L 390.26 398.94
  Q 390.43 398.42 389.89 398.33
  C 386.46 397.79 382.91 397.50 382.99 392.94
  C 383.14 383.81 384.81 364.75 378.70 358.58
  C 370.21 349.99 361.31 356.67 354.78 363.05
  Q 354.34 363.48 354.14 362.90
  C 349.73 350.38 335.56 353.92 328.85 362.23
  A 0.47 0.47 0.0 0 1 328.01 361.94
  L 328.00 355.90
  A 0.97 0.96 86.3 0 0 326.92 354.94
  L 312.33 356.67
  Q 311.82 356.73 311.56 357.17
  L 311.36 357.50
  A 0.76 0.76 0.0 0 0 311.86 358.63
  L 316.61 359.63
  A 0.90 0.89 -5.3 0 1 317.23 360.14
  Z
  M 398.42 358.60
  Q 400.41 359.19 402.58 359.59
  A 1.12 1.10 80.0 0 1 403.36 360.15
  Q 404.44 362.10 404.46 364.44
  Q 404.62 378.75 404.42 393.06
  C 404.35 397.75 401.29 397.49 397.98 398.79
  A 0.65 0.65 0.0 0 0 398.21 400.05
  L 421.52 400.02
  A 0.53 0.52 87.0 0 0 422.04 399.44
  Q 421.89 397.94 419.98 397.97
  C 417.08 398.01 415.42 396.46 415.27 393.46
  Q 414.28 374.41 414.53 355.21
  A 0.42 0.41 -3.7 0 0 414.06 354.80
  L 398.21 356.73
  A 0.80 0.79 87.1 0 0 397.51 357.51
  Q 397.49 358.33 398.42 358.60
  Z
  M 440.41 363.30
  C 441.95 357.88 449.94 355.42 452.60 360.98
  C 453.54 362.94 454.55 367.05 457.75 365.44
  C 459.62 364.50 459.04 360.35 458.98 358.69
  A 2.36 2.36 0.0 0 0 457.47 356.58
  C 448.98 353.33 436.60 353.59 433.50 364.25
  C 429.39 378.37 445.05 380.87 450.76 388.85
  C 453.52 392.71 450.62 396.95 446.28 397.58
  C 440.69 398.40 439.00 394.78 437.15 390.19
  A 1.03 1.02 -10.1 0 0 436.23 389.55
  L 433.07 389.48
  Q 432.48 389.46 432.48 390.06
  C 432.48 392.73 431.43 397.68 434.47 399.01
  Q 443.80 403.08 452.44 399.20
  C 458.20 396.62 461.44 389.12 459.08 383.14
  C 455.63 374.37 443.45 372.82 440.43 364.24
  Q 440.27 363.77 440.41 363.30
  Z
  M 100.64 384.15
  C 103.40 400.52 121.08 406.89 133.04 395.30
  C 134.36 394.02 134.42 392.37 132.72 391.47
  A 0.80 0.79 34.9 0 0 131.76 391.63
  C 124.16 399.75 114.79 395.93 112.23 386.01
  C 110.30 378.56 108.57 357.67 120.99 358.01
  C 127.88 358.20 127.14 362.38 129.19 367.14
  Q 129.36 367.54 129.79 367.67
  C 134.29 369.07 133.24 360.49 133.28 358.06
  A 1.54 1.53 7.8 0 0 132.12 356.54
  C 125.81 354.95 118.75 354.08 112.81 356.16
  C 101.44 360.15 98.82 373.39 100.64 384.15
  Z"
/>
<path fill="#ffffff" d="
  M 261.09 320.05
  Q 262.23 317.38 262.24 314.43
  Q 262.32 296.35 262.21 278.25
  Q 262.18 273.08 261.27 269.49
  A 0.78 0.77 85.0 0 0 260.60 268.92
  Q 258.00 268.69 255.88 267.35
  A 0.73 0.73 0.0 0 1 256.20 266.00
  L 270.55 264.56
  Q 271.65 264.45 271.64 265.55
  L 271.44 288.14
  A 0.35 0.35 0.0 0 0 272.01 288.41
  C 276.48 284.60 280.61 281.47 287.26 283.03
  C 293.24 284.43 295.70 289.22 296.04 295.02
  Q 296.78 307.87 296.48 315.50
  Q 296.37 318.14 297.32 319.98
  A 1.21 1.20 -3.6 0 0 298.01 320.58
  L 302.22 322.03
  A 0.76 0.76 0.0 0 1 301.97 323.50
  L 282.98 323.50
  Q 282.26 323.50 282.32 322.79
  L 282.37 322.08
  Q 282.41 321.52 282.96 321.42
  C 287.00 320.72 286.71 317.66 286.91 313.84
  Q 287.40 303.94 286.47 294.06
  C 285.65 285.34 275.41 286.33 272.60 292.44
  C 270.07 297.91 271.50 311.88 271.87 318.05
  A 3.20 3.18 -79.0 0 0 273.68 320.75
  L 275.96 321.84
  A 0.87 0.87 0.0 0 1 275.59 323.49
  L 255.97 323.52
  Q 255.58 323.52 255.65 323.14
  C 255.96 321.44 259.15 320.95 260.33 320.68
  A 1.08 1.05 4.6 0 0 261.09 320.05
  Z"
/>
<path fill="#ffffff" d="
  M 203.93 278.60
  A 1.15 1.14 5.5 0 1 203.00 277.48
  L 203.00 266.74
  A 0.51 0.51 0.0 0 1 203.51 266.23
  L 250.60 266.20
  Q 251.25 266.20 251.27 266.85
  L 251.64 277.90
  Q 251.66 278.52 251.04 278.51
  L 248.84 278.48
  A 0.60 0.60 0.0 0 1 248.25 277.79
  C 249.42 269.48 239.17 269.36 233.27 269.92
  Q 232.80 269.96 232.79 270.44
  Q 232.68 282.40 232.71 294.31
  C 232.72 300.40 232.07 309.65 233.25 317.25
  C 233.85 321.12 236.91 320.99 239.92 321.30
  Q 240.53 321.36 240.30 321.93
  L 239.85 323.05
  Q 239.67 323.50 239.18 323.50
  L 215.48 323.50
  A 1.04 1.04 0.0 0 1 214.49 322.15
  L 214.62 321.75
  Q 214.77 321.27 215.27 321.32
  C 220.33 321.77 222.00 318.79 222.00 314.10
  Q 222.00 292.17 222.00 270.37
  A 0.65 0.64 89.1 0 0 221.34 269.72
  Q 216.59 269.83 211.75 270.37
  C 206.51 270.96 206.28 273.69 205.74 278.14
  Q 205.65 278.93 204.86 278.78
  L 203.93 278.60
  Z"
/>
<path fill="#ffffff" d="
  M 312.94 320.06
  C 305.54 314.37 305.04 302.43 308.09 294.39
  C 314.84 276.62 342.31 278.92 341.10 300.43
  A 0.60 0.60 0.0 0 1 340.50 301.00
  L 317.52 301.05
  Q 315.95 301.06 316.08 302.62
  C 316.53 307.95 317.44 314.83 322.08 317.92
  C 328.67 322.33 334.37 318.94 339.46 314.18
  A 1.01 1.01 0.0 0 1 340.97 315.50
  C 334.19 325.09 322.45 327.38 312.94 320.06
  Z
  M 316.57 298.05
  L 332.17 296.98
  A 0.28 0.28 0.0 0 0 332.43 296.69
  L 332.38 295.90
  A 10.99 8.05 86.1 0 0 323.60 285.48
  L 323.50 285.49
  A 10.99 8.05 86.1 0 0 316.22 297.00
  L 316.27 297.79
  A 0.28 0.28 0.0 0 0 316.57 298.05
  Z"
/>
<path fill="#d03123" d="
  M 316.57 298.05
  A 0.28 0.28 0.0 0 1 316.27 297.79
  L 316.22 297.00
  A 10.99 8.05 86.1 0 1 323.50 285.49
  L 323.60 285.48
  A 10.99 8.05 86.1 0 1 332.38 295.90
  L 332.43 296.69
  A 0.28 0.28 0.0 0 1 332.17 296.98
  L 316.57 298.05
  Z"
/>
<circle fill="#ffffff" cx="409.44" cy="339.62" r="5.83"/>
<path fill="#ffffff" d="
  M 44.09 338.35
  A 0.76 0.76 0.0 0 1 44.23 336.85
  L 84.78 336.48
  Q 85.34 336.48 85.32 337.03
  L 84.97 348.66
  A 1.60 1.60 0.0 0 1 81.83 349.05
  L 80.22 343.37
  Q 80.07 342.87 79.61 342.61
  C 75.94 340.52 68.82 340.63 64.65 340.80
  Q 64.00 340.82 64.00 341.48
  L 64.00 363.74
  A 1.47 1.47 0.0 0 0 65.43 365.21
  C 68.95 365.32 75.66 365.99 78.59 363.66
  C 80.26 362.32 80.52 359.73 80.86 357.75
  A 1.33 1.33 0.0 0 1 83.50 357.98
  L 83.50 375.78
  A 1.51 1.50 37.6 0 1 80.54 376.16
  C 79.76 373.23 79.84 370.09 75.84 369.65
  Q 70.52 369.05 64.87 369.30
  A 0.88 0.88 0.0 0 0 64.02 370.17
  Q 63.92 380.63 64.11 391.45
  Q 64.19 395.92 68.73 396.10
  C 73.50 396.29 82.95 395.84 84.46 390.25
  Q 85.40 386.73 85.86 385.35
  Q 86.06 384.74 86.67 384.95
  L 88.46 385.56
  Q 89.22 385.82 89.11 386.62
  L 87.30 399.78
  A 0.88 0.88 0.0 0 1 86.42 400.53
  L 45.00 399.86
  A 0.91 0.89 39.3 0 1 44.81 398.08
  C 49.15 397.20 52.23 396.38 52.24 391.05
  Q 52.26 367.90 52.25 344.75
  C 52.24 340.22 47.62 339.06 44.09 338.35
  Z"
/>
<path fill="#ffffff" d="
  M 474.72 361.76
  L 469.89 361.42
  Q 469.38 361.38 469.41 360.88
  L 469.57 357.71
  Q 469.61 357.09 470.23 357.05
  C 477.25 356.61 479.56 350.98 481.11 345.45
  A 2.16 2.16 0.0 0 1 485.35 345.99
  L 485.52 355.86
  Q 485.53 356.44 486.11 356.46
  L 496.05 356.82
  Q 496.51 356.84 496.40 357.28
  L 495.48 360.96
  A 0.72 0.72 0.0 0 1 494.78 361.50
  L 486.01 361.50
  Q 485.51 361.50 485.51 361.99
  Q 485.47 373.69 485.51 385.36
  C 485.53 392.71 487.02 398.66 496.13 395.92
  Q 496.71 395.74 496.97 396.29
  L 497.63 397.64
  Q 497.96 398.33 497.25 398.62
  C 484.40 403.77 475.19 400.81 475.25 385.54
  Q 475.30 373.92 475.23 362.30
  Q 475.23 361.79 474.72 361.76
  Z"
/>
<path fill="#ffffff" d="
  M 148.00 392.49
  C 141.89 383.71 142.60 366.44 151.31 359.40
  C 157.01 354.79 165.42 353.77 172.44 355.74
  C 193.41 361.63 192.63 395.35 171.58 400.61
  C 162.91 402.77 153.16 399.92 148.00 392.49
  Z
  M 165.65 397.87
  C 181.07 399.74 180.22 361.89 166.74 358.69
  C 151.99 355.19 154.65 379.94 156.61 387.46
  C 157.89 392.36 160.20 397.21 165.65 397.87
  Z"
/>
<path fill="#ffffff" d="
  M 197.99 357.88
  A 0.23 0.22 -88.1 0 1 197.85 357.72
  L 197.75 357.21
  A 0.36 0.36 0.0 0 1 198.07 356.79
  L 214.12 354.81
  Q 214.75 354.73 214.75 355.36
  L 214.75 360.28
  A 0.84 0.84 0.0 0 0 216.18 360.87
  C 223.41 353.71 236.53 351.49 241.32 362.53
  C 244.24 369.27 242.77 382.67 242.83 390.25
  Q 242.89 397.80 249.78 398.62
  A 0.54 0.54 0.0 0 1 250.26 399.20
  Q 250.25 399.38 250.25 399.54
  Q 250.25 400.01 249.77 400.02
  L 227.99 400.27
  A 0.88 0.88 0.0 0 1 227.68 398.56
  C 231.48 397.18 232.46 394.60 232.49 390.55
  C 232.56 380.64 233.03 373.16 231.90 367.42
  C 229.52 355.32 215.91 360.73 215.66 370.32
  Q 215.37 381.49 215.53 392.68
  C 215.59 396.80 217.78 396.99 220.82 398.49
  A 0.80 0.79 58.1 0 1 220.47 400.00
  L 199.24 400.00
  A 0.83 0.82 37.4 0 1 199.02 398.38
  C 201.86 397.61 204.69 397.61 204.76 393.43
  Q 205.08 374.14 204.99 365.25
  Q 204.97 363.14 204.18 360.62
  Q 204.03 360.15 203.58 359.98
  L 197.99 357.88
  Z"
/>
<path fill="#ffffff" d="
  M 300.9149 381.7573
  A 19.76 19.76 0.0 0 1 280.6780 401.0286
  L 276.9591 400.9377
  A 19.76 19.76 0.0 0 1 257.6878 380.7008
  L 257.8451 374.2627
  A 19.76 19.76 0.0 0 1 278.0820 354.9914
  L 281.8009 355.0823
  A 19.76 19.76 0.0 0 1 301.0722 375.3192
  L 300.9149 381.7573
  Z
  M 272.46 392.83
  C 274.08 396.39 277.73 398.49 281.55 397.88
  C 285.74 397.21 288.16 393.49 289.26 389.57
  Q 293.02 376.28 287.10 364.81
  C 283.27 357.38 272.28 355.19 269.96 364.98
  Q 266.48 379.69 272.46 392.83
  Z"
/>
<path fill="#ffffff" d="
  M 316.61 359.63
  L 311.86 358.63
  A 0.76 0.76 0.0 0 1 311.36 357.50
  L 311.56 357.17
  Q 311.82 356.73 312.33 356.67
  L 326.92 354.94
  A 0.97 0.96 86.3 0 1 328.00 355.90
  L 328.01 361.94
  A 0.47 0.47 0.0 0 0 328.85 362.23
  C 335.56 353.92 349.73 350.38 354.14 362.90
  Q 354.34 363.48 354.78 363.05
  C 361.31 356.67 370.21 349.99 378.70 358.58
  C 384.81 364.75 383.14 383.81 382.99 392.94
  C 382.91 397.50 386.46 397.79 389.89 398.33
  Q 390.43 398.42 390.26 398.94
  L 390.12 399.41
  Q 389.93 400.00 389.32 400.00
  L 368.24 400.00
  A 0.77 0.77 0.0 0 1 367.69 398.68
  L 368.18 398.20
  Q 368.38 397.99 368.65 397.91
  C 370.86 397.21 372.21 396.01 372.41 393.51
  Q 373.59 378.26 372.01 366.76
  C 370.58 356.40 355.98 359.93 355.83 370.57
  C 355.70 379.20 354.53 390.37 356.91 396.40
  A 1.05 1.01 -88.9 0 0 357.41 396.94
  L 361.36 398.95
  A 0.55 0.55 0.0 0 1 361.12 399.99
  L 340.99 400.07
  A 0.93 0.93 0.0 0 1 340.82 398.22
  Q 345.12 397.44 345.33 393.07
  C 345.68 385.90 346.87 365.95 342.33 362.04
  C 338.46 358.71 332.70 361.61 330.35 365.24
  C 326.87 370.62 328.43 386.17 328.96 392.63
  C 329.21 395.69 330.25 397.57 333.31 398.09
  A 0.82 0.82 0.0 0 1 333.97 398.70
  Q 334.15 399.42 333.79 399.76
  Q 333.58 399.97 333.02 399.98
  Q 322.52 400.03 312.02 399.99
  Q 311.50 399.99 311.48 399.47
  Q 311.46 398.78 311.97 398.36
  Q 312.30 398.09 313.02 398.10
  Q 317.87 398.20 318.13 393.51
  Q 318.86 380.83 318.23 363.51
  Q 318.19 362.36 317.23 360.14
  A 0.90 0.89 -5.3 0 0 316.61 359.63
  Z"
/>
<path fill="#ffffff" d="
  M 398.42 358.60
  Q 397.49 358.33 397.51 357.51
  A 0.80 0.79 87.1 0 1 398.21 356.73
  L 414.06 354.80
  A 0.42 0.41 -3.7 0 1 414.53 355.21
  Q 414.28 374.41 415.27 393.46
  C 415.42 396.46 417.08 398.01 419.98 397.97
  Q 421.89 397.94 422.04 399.44
  A 0.53 0.52 87.0 0 1 421.52 400.02
  L 398.21 400.05
  A 0.65 0.65 0.0 0 1 397.98 398.79
  C 401.29 397.49 404.35 397.75 404.42 393.06
  Q 404.62 378.75 404.46 364.44
  Q 404.44 362.10 403.36 360.15
  A 1.12 1.10 80.0 0 0 402.58 359.59
  Q 400.41 359.19 398.42 358.60
  Z"
/>
<path fill="#ffffff" d="
  M 440.43 364.24
  C 443.45 372.82 455.63 374.37 459.08 383.14
  C 461.44 389.12 458.20 396.62 452.44 399.20
  Q 443.80 403.08 434.47 399.01
  C 431.43 397.68 432.48 392.73 432.48 390.06
  Q 432.48 389.46 433.07 389.48
  L 436.23 389.55
  A 1.03 1.02 -10.1 0 1 437.15 390.19
  C 439.00 394.78 440.69 398.40 446.28 397.58
  C 450.62 396.95 453.52 392.71 450.76 388.85
  C 445.05 380.87 429.39 378.37 433.50 364.25
  C 436.60 353.59 448.98 353.33 457.47 356.58
  A 2.36 2.36 0.0 0 1 458.98 358.69
  C 459.04 360.35 459.62 364.50 457.75 365.44
  C 454.55 367.05 453.54 362.94 452.60 360.98
  C 449.94 355.42 441.95 357.88 440.41 363.30
  Q 440.27 363.77 440.43 364.24
  Z"
/>
<path fill="#ffffff" d="
  M 133.04 395.30
  C 121.08 406.89 103.40 400.52 100.64 384.15
  C 98.82 373.39 101.44 360.15 112.81 356.16
  C 118.75 354.08 125.81 354.95 132.12 356.54
  A 1.54 1.53 7.8 0 1 133.28 358.06
  C 133.24 360.49 134.29 369.07 129.79 367.67
  Q 129.36 367.54 129.19 367.14
  C 127.14 362.38 127.88 358.20 120.99 358.01
  C 108.57 357.67 110.30 378.56 112.23 386.01
  C 114.79 395.93 124.16 399.75 131.76 391.63
  A 0.80 0.79 34.9 0 1 132.72 391.47
  C 134.42 392.37 134.36 394.02 133.04 395.30
  Z"
/>
<path fill="#d03123" d="
  M 165.65 397.87
  C 160.20 397.21 157.89 392.36 156.61 387.46
  C 154.65 379.94 151.99 355.19 166.74 358.69
  C 180.22 361.89 181.07 399.74 165.65 397.87
  Z"
/>
<path fill="#d03123" d="
  M 281.55 397.88
  C 277.73 398.49 274.08 396.39 272.46 392.83
  Q 266.48 379.69 269.96 364.98
  C 272.28 355.19 283.27 357.38 287.10 364.81
  Q 293.02 376.28 289.26 389.57
  C 288.16 393.49 285.74 397.21 281.55 397.88
  Z"
/>
<path fill="#0f40f5" d="
  M 487.82 689.71
  A 23.09 23.09 0.0 0 1 464.73 712.80
  A 23.09 23.09 0.0 0 1 441.64 689.71
  A 23.09 23.09 0.0 0 1 464.73 666.62
  A 23.09 23.09 0.0 0 1 487.82 689.71
  Z
  M 450.38 690.65
  L 463.41 703.51
  A 2.04 2.04 0.0 0 0 466.22 703.56
  Q 472.14 698.14 478.00 691.97
  C 481.33 688.46 476.90 684.44 473.59 688.11
  Q 471.08 690.90 468.32 693.50
  Q 467.75 694.04 467.75 693.26
  L 467.75 676.99
  A 2.20 2.20 0.0 0 0 465.98 674.83
  Q 462.12 674.07 462.00 677.76
  Q 461.75 685.62 461.71 693.29
  A 0.25 0.25 0.0 0 1 461.28 693.47
  L 454.62 686.72
  A 1.14 1.12 61.1 0 0 453.58 686.41
  Q 451.19 686.89 450.11 689.10
  Q 449.69 689.97 450.38 690.65
  Z"
/>
<path fill="#0f40f5" d="
  M 331.39 705.99
  C 325.65 708.11 321.36 704.40 321.37 698.55
  Q 321.40 683.41 321.57 668.21
  Q 321.57 667.75 322.03 667.75
  L 327.98 667.75
  Q 328.49 667.75 328.49 668.25
  Q 328.51 683.51 328.55 698.75
  Q 328.55 700.76 330.38 700.91
  A 0.72 0.71 87.4 0 1 331.03 701.51
  L 331.67 705.51
  Q 331.72 705.87 331.39 705.99
  Z"
/>
<path fill="#0f40f5" d="
  M 410.85 703.46
  C 408.87 704.78 407.11 706.33 404.68 706.46
  C 389.52 707.27 389.20 682.33 401.57 678.80
  Q 405.93 677.55 410.07 680.87
  A 0.45 0.45 0.0 0 0 410.80 680.51
  L 410.44 668.29
  A 0.52 0.52 0.0 0 1 410.96 667.75
  L 417.00 667.75
  Q 417.49 667.75 417.49 668.25
  L 417.51 705.52
  A 0.48 0.47 90.0 0 1 417.04 706.00
  L 412.47 706.00
  Q 411.92 706.00 411.84 705.46
  L 411.59 703.78
  Q 411.48 703.03 410.85 703.46
  Z
  M 410.29 698.26
  L 410.49 687.06
  A 2.40 2.40 0.0 0 0 408.13 684.62
  L 405.78 684.58
  A 6.71 5.55 -89.0 0 0 400.11 691.19
  L 400.07 693.77
  A 6.71 5.55 -89.0 0 0 405.50 700.58
  L 407.85 700.62
  A 2.40 2.40 0.0 0 0 410.29 698.26
  Z"
/>
<path fill="#0f40f5" d="
  M 79.25 676.66
  L 79.25 685.32
  A 0.43 0.43 0.0 0 0 79.68 685.75
  L 91.32 685.75
  A 0.43 0.43 0.0 0 1 91.75 686.18
  L 91.75 691.07
  A 0.43 0.43 0.0 0 1 91.32 691.50
  L 79.68 691.50
  A 0.43 0.43 0.0 0 0 79.25 691.93
  L 79.25 705.57
  A 0.43 0.43 0.0 0 1 78.82 706.00
  L 72.66 706.00
  A 0.43 0.43 0.0 0 1 72.23 705.57
  L 72.26 670.93
  A 0.43 0.43 0.0 0 1 72.69 670.50
  L 93.57 670.50
  A 0.43 0.43 0.0 0 1 94.00 670.93
  L 94.00 675.87
  A 0.43 0.43 0.0 0 1 93.57 676.30
  L 79.68 676.23
  A 0.43 0.43 0.0 0 0 79.25 676.66
  Z"
/>
<path fill="#0f40f5" d="
  M 186.27 670.75
  A 0.26 0.26 0.0 0 1 186.53 670.49
  L 197.32 670.51
  A 15.95 15.67 0.1 0 1 213.24 686.20
  L 213.24 690.32
  A 15.95 15.67 0.1 0 1 197.26 705.97
  L 186.47 705.95
  A 0.26 0.26 0.0 0 1 186.21 705.69
  L 186.27 670.75
  Z
  M 193.21 676.50
  L 193.29 699.92
  A 0.28 0.28 0.0 0 0 193.57 700.20
  L 196.25 700.19
  A 9.97 9.80 89.8 0 0 206.02 690.19
  L 206.00 686.15
  A 9.97 9.80 89.8 0 0 196.17 676.21
  L 193.49 676.22
  A 0.28 0.28 0.0 0 0 193.21 676.50
  Z"
/>
<path fill="#ffffff" d="
  M 463.41 703.51
  L 450.38 690.65
  Q 449.69 689.97 450.11 689.10
  Q 451.19 686.89 453.58 686.41
  A 1.14 1.12 61.1 0 1 454.62 686.72
  L 461.28 693.47
  A 0.25 0.25 0.0 0 0 461.71 693.29
  Q 461.75 685.62 462.00 677.76
  Q 462.12 674.07 465.98 674.83
  A 2.20 2.20 0.0 0 1 467.75 676.99
  L 467.75 693.26
  Q 467.75 694.04 468.32 693.50
  Q 471.08 690.90 473.59 688.11
  C 476.90 684.44 481.33 688.46 478.00 691.97
  Q 472.14 698.14 466.22 703.56
  A 2.04 2.04 0.0 0 1 463.41 703.51
  Z"
/>
<path fill="#ffffff" d="
  M 193.21 676.50
  A 0.28 0.28 0.0 0 1 193.49 676.22
  L 196.17 676.21
  A 9.97 9.80 89.8 0 1 206.00 686.15
  L 206.02 690.19
  A 9.97 9.80 89.8 0 1 196.25 700.19
  L 193.57 700.20
  A 0.28 0.28 0.0 0 1 193.29 699.92
  L 193.21 676.50
  Z"
/>
<path fill="#0f40f5" d="
  M 104.70 682.97
  Q 104.84 684.47 105.60 683.17
  Q 108.73 677.81 114.97 678.72
  A 0.79 0.78 -80.2 0 1 115.62 679.65
  L 114.68 684.30
  Q 114.55 684.94 113.90 684.86
  C 102.62 683.45 105.43 699.12 105.56 705.57
  A 0.41 0.40 89.3 0 1 105.16 705.99
  L 99.00 706.00
  Q 98.50 706.01 98.50 705.50
  L 98.50 679.75
  Q 98.50 679.25 99.00 679.25
  L 103.80 679.25
  Q 104.36 679.25 104.41 679.81
  L 104.70 682.97
  Z"
/>
<path fill="#0f40f5" d="
  M 124.31 695.01
  C 125.20 701.84 132.02 702.29 137.05 699.61
  Q 137.50 699.37 137.74 699.81
  L 139.48 703.06
  Q 139.70 703.48 139.30 703.73
  C 129.64 709.82 118.85 705.81 117.29 694.43
  C 114.73 675.77 142.75 671.29 140.68 693.91
  Q 140.63 694.50 140.04 694.50
  L 124.75 694.50
  Q 124.24 694.50 124.31 695.01
  Z
  M 124.43 689.92
  L 134.56 689.66
  A 0.28 0.28 0.0 0 0 134.84 689.37
  L 134.83 689.20
  A 5.33 5.24 88.5 0 0 129.45 684.01
  L 129.23 684.01
  A 5.33 5.24 88.5 0 0 124.14 689.48
  L 124.14 689.65
  A 0.28 0.28 0.0 0 0 124.43 689.92
  Z"
/>
<path fill="#0f40f5" d="
  M 151.90 694.96
  C 153.25 701.73 159.44 702.29 164.74 699.66
  A 0.61 0.60 62.6 0 1 165.55 699.92
  L 167.22 703.06
  Q 167.46 703.50 167.04 703.77
  C 159.00 708.83 148.93 706.96 145.73 697.77
  C 142.49 688.49 149.18 676.16 160.38 678.97
  C 167.05 680.64 169.24 687.86 168.29 694.03
  Q 168.22 694.50 167.74 694.50
  L 152.28 694.50
  Q 151.81 694.50 151.90 694.96
  Z
  M 152.30 689.81
  L 162.27 689.69
  A 0.28 0.28 0.0 0 0 162.55 689.41
  L 162.55 689.22
  A 5.24 5.23 -0.7 0 0 157.25 684.05
  L 157.19 684.05
  A 5.24 5.23 -0.7 0 0 152.01 689.34
  L 152.01 689.53
  A 0.28 0.28 0.0 0 0 152.30 689.81
  Z"
/>
<path fill="#0f40f5" d="
  M 231.0446 706.6500
  A 14.08 12.90 89.9 0 1 218.1200 692.5925
  A 14.08 12.90 89.9 0 1 230.9954 678.4900
  A 14.08 12.90 89.9 0 1 243.9200 692.5475
  A 14.08 12.90 89.9 0 1 231.0446 706.6500
  Z
  M 231.0590 700.8899
  A 8.32 5.68 89.8 0 0 236.7100 692.5502
  A 8.32 5.68 89.8 0 0 231.0010 684.2501
  A 8.32 5.68 89.8 0 0 225.3500 692.5898
  A 8.32 5.68 89.8 0 0 231.0590 700.8899
  Z"
/>
<path fill="#0f40f5" d="
  M 347.6963 706.6498
  A 14.08 12.89 90.3 0 1 334.8802 692.5025
  A 14.08 12.89 90.3 0 1 347.8437 678.4902
  A 14.08 12.89 90.3 0 1 360.6598 692.6375
  A 14.08 12.89 90.3 0 1 347.6963 706.6498
  Z
  M 347.7500 700.8800
  A 8.31 5.67 90.0 0 0 353.4200 692.5700
  A 8.31 5.67 90.0 0 0 347.7500 684.2600
  A 8.31 5.67 90.0 0 0 342.0800 692.5700
  A 8.31 5.67 90.0 0 0 347.7500 700.8800
  Z"
/>
<path fill="#0f40f5" d="
  M 305.42 684.91
  Q 300.89 683.87 297.97 687.59
  A 1.12 1.11 63.9 0 0 297.74 688.27
  L 297.78 705.61
  A 0.39 0.38 -0.0 0 1 297.39 705.99
  L 291.38 706.00
  Q 290.75 706.01 290.75 705.38
  L 290.75 679.75
  Q 290.75 679.25 291.25 679.25
  L 296.13 679.25
  Q 296.75 679.25 296.75 679.88
  L 296.75 681.67
  A 0.74 0.74 0.0 0 0 298.03 682.17
  C 301.23 678.65 307.18 677.24 311.12 680.38
  C 315.48 683.86 314.46 698.29 314.07 705.43
  Q 314.04 706.00 313.47 706.00
  L 307.80 706.00
  Q 307.24 706.00 307.24 705.44
  C 307.27 699.97 308.28 690.58 306.31 685.67
  A 1.27 1.24 -3.9 0 0 305.42 684.91
  Z"
/>
<path fill="#0f40f5" d="
  M 380.37 703.32
  C 368.19 712.38 358.90 698.24 368.82 691.81
  Q 372.23 689.61 379.38 689.04
  Q 379.89 689.00 379.95 688.49
  C 380.67 681.82 371.87 684.74 368.75 686.39
  Q 368.30 686.63 368.04 686.18
  L 366.01 682.71
  Q 365.78 682.31 366.17 682.05
  C 373.65 676.95 385.69 676.35 386.81 688.13
  Q 387.63 696.73 387.13 705.39
  Q 387.10 706.00 386.49 706.00
  L 382.10 706.00
  A 0.78 0.78 0.0 0 1 381.33 705.35
  L 381.05 703.59
  Q 380.93 702.90 380.37 703.32
  Z
  M 379.61 693.30
  C 366.47 694.22 372.41 705.45 379.10 699.40
  C 380.74 697.92 380.41 695.81 380.21 693.80
  Q 380.15 693.26 379.61 693.30
  Z"
/>
<path fill="#0f40f5" d="
  M 266.38 687.25
  A 0.20 0.20 0.0 0 0 265.98 687.25
  L 262.05 705.20
  Q 261.87 706.00 261.05 706.00
  L 254.23 706.00
  Q 253.76 706.00 253.64 705.55
  L 247.06 679.89
  Q 246.89 679.25 247.55 679.25
  L 253.08 679.25
  Q 253.91 679.25 254.08 680.07
  L 258.09 699.45
  A 0.17 0.17 0.0 0 0 258.43 699.45
  L 263.02 679.91
  Q 263.17 679.25 263.85 679.25
  L 269.07 679.25
  Q 269.56 679.25 269.68 679.73
  L 274.41 699.48
  A 0.18 0.18 0.0 0 0 274.76 699.47
  L 278.89 679.74
  Q 278.99 679.25 279.49 679.25
  L 285.00 679.25
  Q 285.48 679.25 285.37 679.72
  L 279.01 705.58
  Q 278.90 706.00 278.47 706.00
  L 271.15 706.00
  A 0.73 0.72 -5.9 0 1 270.44 705.43
  L 266.38 687.25
  Z"
/>
<path fill="#ffffff" d="
  M 124.43 689.92
  A 0.28 0.28 0.0 0 1 124.14 689.65
  L 124.14 689.48
  A 5.33 5.24 88.5 0 1 129.23 684.01
  L 129.45 684.01
  A 5.33 5.24 88.5 0 1 134.83 689.20
  L 134.84 689.37
  A 0.28 0.28 0.0 0 1 134.56 689.66
  L 124.43 689.92
  Z"
/>
<path fill="#ffffff" d="
  M 152.30 689.81
  A 0.28 0.28 0.0 0 1 152.01 689.53
  L 152.01 689.34
  A 5.24 5.23 -0.7 0 1 157.19 684.05
  L 157.25 684.05
  A 5.24 5.23 -0.7 0 1 162.55 689.22
  L 162.55 689.41
  A 0.28 0.28 0.0 0 1 162.27 689.69
  L 152.30 689.81
  Z"
/>
<ellipse fill="#ffffff" cx="0.00" cy="0.00" transform="translate(347.75,692.57) rotate(90.0)" rx="8.31" ry="5.67"/>
<ellipse fill="#ffffff" cx="0.00" cy="0.00" transform="translate(231.03,692.57) rotate(89.8)" rx="8.32" ry="5.68"/>
<path fill="#ffffff" d="
  M 410.29 698.26
  A 2.40 2.40 0.0 0 1 407.85 700.62
  L 405.50 700.58
  A 6.71 5.55 -89.0 0 1 400.07 693.77
  L 400.11 691.19
  A 6.71 5.55 -89.0 0 1 405.78 684.58
  L 408.13 684.62
  A 2.40 2.40 0.0 0 1 410.49 687.06
  L 410.29 698.26
  Z"
/>
<path fill="#ffffff" d="
  M 379.10 699.40
  C 372.41 705.45 366.47 694.22 379.61 693.30
  Q 380.15 693.26 380.21 693.80
  C 380.41 695.81 380.74 697.92 379.10 699.40
  Z"
/>
</svg>
